<?xml version="1.0" standalone="no"?>
<!DOCTYPE svg PUBLIC "-//W3C//DTD SVG 20010904//EN"
 "http://www.w3.org/TR/2001/REC-SVG-20010904/DTD/svg10.dtd">
<svg version="1.0" xmlns="http://www.w3.org/2000/svg"
 width="2304.000000pt" height="1792.000000pt" viewBox="0 0 2304.000000 1792.000000"
 preserveAspectRatio="xMidYMid meet">

<g transform="translate(0.000000,1792.000000) scale(0.100000,-0.100000)"
fill="#000000" stroke="none">
<path d="M14695 12394 c-109 -6 -274 -26 -302 -35 -21 -7 -12 -8 32 -4 129 12
525 23 625 19 70 -4 100 -2 90 5 -16 10 -342 21 -445 15z"/>
<path d="M12845 12339 c-338 -12 -657 -29 -850 -45 -99 -8 -301 -21 -450 -29
-289 -16 -441 -31 -370 -35 l40 -2 -35 -8 c-65 -15 -304 -49 -415 -59 -171
-16 -373 -59 -395 -86 -13 -16 -60 -21 -60 -6 0 11 25 21 50 21 10 0 22 5 26
11 4 7 0 9 -12 6 -11 -3 -44 -11 -75 -17 -31 -6 -90 -31 -134 -55 -62 -35
-108 -52 -229 -81 -83 -20 -178 -47 -211 -59 -33 -13 -91 -36 -130 -50 -143
-56 -516 -247 -715 -368 -213 -128 -323 -199 -674 -436 -114 -77 -271 -172
-347 -212 -77 -39 -165 -91 -196 -115 -31 -24 -60 -44 -64 -44 -4 0 -22 -27
-39 -59 -18 -33 -42 -68 -53 -79 -46 -40 -160 -112 -195 -121 -29 -8 -851
-113 -1147 -147 -201 -23 -415 -58 -674 -110 -518 -105 -715 -186 -1221 -502
-183 -114 -199 -127 -226 -186 -30 -64 -29 -79 4 -141 20 -36 34 -51 52 -53
14 -2 22 -1 18 3 -9 9 44 109 90 169 65 87 66 87 263 92 96 2 248 1 339 -4 91
-5 135 -10 98 -10 -38 -1 -68 -6 -68 -11 0 -5 -15 -13 -32 -16 -18 -4 -37 -10
-43 -14 -5 -3 -12 -6 -15 -7 -42 -8 -186 -68 -200 -84 -3 -3 -14 -6 -25 -8
-11 -2 -29 -9 -40 -17 -12 -7 -54 -21 -95 -30 -41 -10 -84 -24 -95 -32 -11 -7
-45 -13 -77 -13 -62 0 -78 -14 -27 -24 17 -3 127 -6 245 -6 131 0 215 -4 219
-10 3 -5 30 -10 58 -10 66 0 242 -25 285 -41 20 -7 39 -23 49 -43 46 -92 66
-98 304 -96 138 0 199 -3 199 -10 0 -6 5 -8 10 -5 6 4 7 11 4 17 -5 7 -2 8 6
3 18 -11 -34 -53 -78 -61 -31 -6 -224 0 -379 12 -69 5 -74 8 -128 55 -76 66
-83 69 -188 79 -51 5 -119 14 -152 20 -77 13 -505 19 -565 8 -38 -7 -55 -19
-105 -72 -35 -38 -71 -67 -87 -70 -15 -4 -31 -14 -36 -24 -14 -26 -22 -92 -11
-92 5 0 9 -4 9 -9 0 -4 -11 -6 -24 -4 -18 4 -34 -5 -65 -36 -49 -49 -76 -131
-90 -271 -7 -66 -19 -119 -41 -173 -32 -79 -44 -155 -25 -158 12 -2 47 -94 74
-194 11 -38 23 -80 26 -92 5 -15 3 -23 -5 -23 -17 0 -131 101 -125 111 3 4 -3
12 -12 18 -11 7 -14 14 -8 18 6 5 11 16 11 26 2 14 -3 16 -20 11 -32 -9 -56
-45 -56 -85 0 -89 91 -518 150 -705 38 -119 41 -134 34 -201 -4 -49 -16 -94
-36 -135 -50 -106 -47 -180 10 -257 50 -66 135 -89 422 -111 157 -12 202 -19
195 -30 -7 -11 71 -163 94 -184 31 -28 91 -45 158 -46 34 0 74 -5 90 -11 15
-6 71 -52 123 -103 127 -125 297 -232 439 -276 l54 -17 -84 -6 c-115 -8 -594
-54 -759 -72 -236 -27 -449 -69 -510 -100 -30 -15 -37 -38 -21 -63 53 -85
1065 -201 2621 -302 761 -49 2093 -90 2960 -90 820 0 1856 33 2380 76 364 29
798 84 912 115 20 5 45 20 55 33 10 13 28 26 38 29 32 10 384 51 1035 122 333
35 686 73 785 84 99 11 434 47 745 81 311 33 727 78 925 100 198 22 504 55
680 74 512 56 986 103 1320 131 647 54 867 89 1193 189 117 36 142 49 142 72
0 37 -53 47 -391 70 l-87 6 23 41 c12 23 41 76 63 117 80 147 137 320 191 580
11 50 16 58 67 95 81 58 218 204 249 265 29 58 93 300 119 449 18 105 20 196
7 255 -7 27 -4 69 10 148 17 101 18 115 4 175 -9 38 -15 113 -15 183 0 132
-14 218 -59 362 -16 53 -42 147 -57 208 -23 95 -25 117 -15 149 17 60 15 375
-4 411 -15 28 -22 32 -175 87 -66 24 -70 29 -70 94 0 70 3 67 -209 235 -143
113 -181 133 -181 95 0 -33 90 -106 216 -174 63 -34 82 -50 102 -85 13 -24 21
-46 19 -48 -3 -3 -159 -1 -348 4 -267 7 -305 9 -167 10 97 1 183 5 192 8 25
10 19 21 -16 28 -28 6 -31 9 -18 19 14 11 14 14 0 27 -24 22 -41 23 -33 3 6
-15 5 -16 -9 -3 -9 8 -13 19 -10 24 3 5 -5 7 -17 3 -14 -3 -24 0 -28 9 -3 8
-13 14 -23 14 -10 0 -42 25 -71 56 -79 82 -95 87 -273 88 -127 0 -228 -5 -331
-17 -11 -1 -29 -10 -39 -19 -11 -10 -24 -18 -29 -18 -5 0 -4 -8 4 -17 7 -10
-15 9 -49 42 -34 33 -58 61 -52 63 5 2 10 10 10 17 0 10 -7 12 -31 5 -17 -5
-36 -13 -42 -19 -29 -23 -176 -72 -260 -86 -132 -22 -682 -41 -1727 -60 -102
-2 -310 -9 -463 -16 -226 -10 -280 -10 -287 0 -6 11 -8 11 -12 1 -6 -19 -257
-28 -268 -10 -7 11 -12 10 -25 -3 -13 -14 -36 -17 -116 -17 -59 0 -99 4 -99
10 0 13 -37 13 -42 -1 -2 -6 -21 -9 -43 -7 -36 3 -38 4 -22 20 16 16 16 17 0
21 -10 2 1 2 25 -1 24 -2 42 0 42 6 0 6 48 9 130 8 72 -1 130 1 130 4 0 4 62
7 138 8 75 1 173 4 217 7 94 6 523 25 566 25 17 0 28 -4 25 -8 -8 -13 28 -11
36 2 5 7 117 13 340 18 317 6 969 24 1239 33 69 2 132 6 140 9 8 2 34 7 59 11
49 7 224 95 305 154 135 97 235 201 235 243 0 8 -26 44 -57 82 -32 38 -58 72
-58 76 0 8 -113 120 -122 120 -13 0 -110 92 -126 120 l-19 31 38 -16 c50 -21
97 -57 130 -101 15 -19 47 -46 71 -60 23 -14 43 -33 43 -42 0 -19 189 -202
210 -202 8 0 -36 51 -98 113 -78 78 -112 119 -112 135 0 14 -14 37 -32 54 -18
16 -51 47 -73 68 -74 69 -122 100 -154 100 -21 0 -31 5 -31 15 0 8 -7 15 -16
15 -15 0 -46 23 -123 88 -22 18 4 6 42 -20 20 -14 27 -16 28 -6 1 7 4 2 8 -12
4 -15 14 -24 24 -24 9 1 14 -2 11 -7 -3 -5 1 -9 10 -9 8 0 13 7 11 18 -2 9 -4
20 -4 24 -1 5 -6 7 -12 5 -6 -1 -13 10 -15 24 -3 18 0 26 8 25 24 -2 18 19 -7
26 -20 5 -25 3 -25 -13 0 -11 -4 -18 -9 -15 -5 3 -7 16 -3 28 4 17 2 20 -12
15 -10 -4 -15 -3 -11 4 4 5 2 16 -4 23 -6 7 -9 20 -5 29 3 8 0 18 -5 22 -6 3
-8 11 -5 17 5 7 2 8 -5 3 -8 -4 -25 1 -42 14 -15 11 -32 21 -37 21 -4 0 -32
11 -61 25 -29 14 -87 39 -128 56 -118 46 -133 56 -133 84 0 31 -59 98 -100
115 -40 16 -52 4 -20 -20 14 -11 21 -20 16 -20 -5 0 -17 6 -25 14 -24 21 -111
57 -111 45 0 -5 21 -19 48 -29 26 -11 60 -27 76 -37 16 -9 26 -11 22 -4 -18
29 14 6 47 -34 42 -50 42 -51 -10 -30 -19 8 -46 15 -58 15 -13 0 -36 7 -51 15
-16 8 -36 15 -44 15 -8 0 -41 13 -73 29 -31 17 -65 29 -75 29 -9 0 -62 13
-117 30 -130 40 -437 118 -495 127 -25 3 -103 17 -175 30 -71 13 -151 26 -177
30 -27 3 -48 10 -48 14 0 5 -11 6 -25 3 -15 -2 -25 0 -25 8 0 8 -10 9 -30 5
-17 -4 -30 -2 -30 3 0 6 -26 10 -57 11 -80 0 -163 12 -163 22 0 4 -8 8 -17 7
-18 0 -209 13 -228 16 -5 1 -17 6 -25 11 -15 9 -134 24 -380 46 -94 8 -176 8
-330 -1 -113 -7 -207 -16 -210 -20 -3 -5 -70 -16 -150 -25 -80 -9 -172 -25
-206 -36 -33 -11 -69 -21 -80 -23 -10 -3 -36 -11 -56 -20 -35 -15 -138 -23
-138 -10 0 3 5 14 10 25 6 10 7 19 3 19 -4 0 -55 -4 -113 -10 -58 -5 -314 -14
-570 -20 -260 -6 -516 -16 -580 -24 -63 -8 -118 -12 -122 -10 -4 2 -9 1 -12
-4 -3 -4 -25 -7 -50 -7 -25 1 -46 -2 -46 -8 0 -5 14 -7 30 -5 20 3 30 0 30 -9
0 -7 -10 -13 -22 -14 -13 0 -259 -4 -548 -9 -289 -4 -588 -13 -665 -19 -321
-25 -413 -33 -670 -62 -230 -25 -382 -46 -555 -74 -53 -8 -7 10 71 29 221 53
280 66 329 72 30 3 136 24 235 45 320 68 469 89 935 134 85 8 193 20 240 25
287 35 487 42 1295 46 786 4 874 8 890 34 3 5 -2 16 -11 24 -14 14 -69 16
-482 14 -257 0 -561 -5 -677 -9z m2162 -85 c-3 -3 -12 -4 -19 -1 -8 3 -5 6 6
6 11 1 17 -2 13 -5z m-384 -161 c-7 -2 -19 -2 -25 0 -7 3 -2 5 12 5 14 0 19
-2 13 -5z m1134 -19 c-3 -3 -12 -4 -19 -1 -8 3 -5 6 6 6 11 1 17 -2 13 -5z
m-317 -19 c24 -3 48 -11 53 -18 7 -9 10 -9 14 1 5 14 0 14 268 -19 166 -20
531 -82 690 -117 69 -15 80 -20 83 -39 4 -27 6 -27 -83 -8 -134 28 -471 84
-575 95 -58 6 -123 15 -145 20 -22 5 -98 14 -170 20 -71 6 -152 14 -180 18
-80 11 -559 -4 -675 -21 -318 -48 -487 -123 -676 -300 -148 -140 -284 -313
-561 -716 -32 -46 -79 -111 -105 -145 -26 -34 -91 -126 -144 -206 -54 -80
-105 -153 -114 -162 -9 -9 -21 -38 -28 -63 -12 -45 -28 -58 -38 -31 -6 17 130
292 160 323 12 12 32 43 45 70 14 26 40 73 60 103 20 30 39 64 44 74 4 11 54
85 111 165 56 80 116 165 132 188 16 22 64 84 107 136 42 53 77 100 77 106 0
18 229 249 300 303 75 57 233 136 335 167 147 45 225 53 580 60 345 7 356 7
435 -4z m378 8 c-10 -2 -26 -2 -35 0 -10 3 -2 5 17 5 19 0 27 -2 18 -5z
m-4593 -43 c-16 -4 -55 -8 -85 -9 -30 -1 -91 -8 -135 -17 -99 -18 -186 -34
-202 -36 -7 -1 -13 -5 -13 -10 0 -4 -10 -8 -22 -8 -13 0 -36 -7 -52 -15 -16
-9 -37 -17 -45 -19 -9 -1 -34 -10 -56 -20 -57 -25 -88 -37 -105 -41 -70 -16
-147 -39 -154 -46 -6 -5 -18 -9 -27 -9 -9 0 -22 -6 -28 -14 -6 -7 -33 -19 -59
-25 -69 -17 -116 -33 -122 -40 -7 -10 -110 -51 -126 -51 -7 0 -41 -13 -76 -29
-35 -16 -81 -34 -103 -41 -22 -7 -47 -18 -55 -25 -8 -6 -51 -26 -95 -45 -44
-18 -95 -39 -112 -46 -18 -8 -35 -14 -38 -14 -2 0 -17 -12 -32 -26 -16 -14
-45 -33 -65 -41 -21 -8 -38 -20 -38 -26 0 -6 -3 -8 -6 -4 -8 8 -64 -13 -64
-25 0 -5 -9 -6 -20 -3 -11 4 -20 2 -20 -4 0 -6 -5 -11 -10 -11 -6 0 -21 -9
-33 -20 -12 -11 -27 -18 -35 -15 -8 3 -10 0 -6 -7 5 -8 2 -9 -9 -5 -11 4 -17
1 -17 -8 0 -8 -7 -15 -15 -15 -8 0 -15 -5 -15 -12 0 -6 -3 -9 -6 -5 -4 3 -19
0 -35 -9 -16 -8 -30 -13 -32 -12 -1 2 -15 -7 -31 -19 -16 -13 -34 -23 -40 -23
-6 0 -26 -10 -45 -23 -19 -12 -46 -30 -60 -39 -55 -35 -101 -57 -101 -47 0 5
-5 7 -10 4 -6 -4 -8 -10 -5 -15 4 -6 -24 -19 -43 -20 -10 0 -67 -35 -82 -50
-11 -11 -40 -25 -65 -31 -25 -6 -45 -15 -45 -20 0 -5 -7 -6 -15 -3 -10 4 -15
0 -15 -11 0 -9 -4 -14 -9 -10 -5 3 -15 -1 -23 -8 -21 -20 -72 -52 -80 -49 -5
1 -8 -2 -8 -7 0 -8 -36 -25 -50 -23 -3 0 -14 -5 -25 -11 -11 -6 -26 -10 -32
-9 -7 2 -13 -2 -13 -9 0 -6 -6 -9 -13 -6 -7 3 -24 -1 -38 -9 -31 -17 -52 -18
-43 -1 4 6 -6 0 -23 -16 -16 -15 -32 -24 -36 -20 -4 3 -7 1 -7 -5 0 -6 -13
-13 -30 -17 -16 -4 -30 -10 -30 -15 0 -4 -18 -11 -40 -15 -25 -4 -40 -12 -40
-21 0 -9 -4 -12 -10 -9 -5 3 -10 -1 -10 -10 0 -12 -6 -15 -19 -10 -11 3 -22 1
-26 -5 -4 -6 -15 -8 -26 -5 -15 5 -17 3 -12 -11 5 -13 3 -16 -10 -11 -9 3 -32
-6 -55 -23 -52 -37 -58 -48 -36 -64 17 -13 16 -15 -13 -29 -16 -9 -54 -19 -84
-22 l-54 -7 77 53 c43 30 128 94 190 143 285 226 819 598 1118 779 63 38 187
109 275 157 521 284 620 313 1380 395 356 38 667 57 580 35z m3000 -40 c-3 -5
-12 -10 -18 -10 -7 0 -6 4 3 10 19 12 23 12 15 0z m-95 -54 c0 -2 -17 -15 -37
-28 -21 -14 -63 -47 -93 -73 l-55 -49 45 48 c48 51 140 118 140 102z m2467 -2
c-3 -3 -12 -4 -19 -1 -8 3 -5 6 6 6 11 1 17 -2 13 -5z m-6620 -10 c-3 -3 -12
-4 -19 -1 -8 3 -5 6 6 6 11 1 17 -2 13 -5z m6660 0 c-3 -3 -12 -4 -19 -1 -8 3
-5 6 6 6 11 1 17 -2 13 -5z m80 -80 c-3 -3 -12 -4 -19 -1 -8 3 -5 6 6 6 11 1
17 -2 13 -5z m40 -10 c-3 -3 -12 -4 -19 -1 -8 3 -5 6 6 6 11 1 17 -2 13 -5z
m58 -14 c13 -5 14 -9 5 -9 -8 0 -24 4 -35 9 -13 5 -14 9 -5 9 8 0 24 -4 35 -9z
m345 -19 c36 -10 81 -25 100 -34 64 -28 6 -18 -95 17 -108 37 -111 48 -5 17z
m-237 -10 c11 -4 -5 -7 -35 -7 -29 0 -44 2 -33 4 l20 5 -20 8 c-23 10 38 1 68
-10z m127 -37 c19 -7 28 -13 20 -13 -13 -1 -13 -3 0 -12 12 -9 12 -10 -3 -5
-10 3 -24 6 -30 6 -7 0 -6 5 3 11 12 8 9 9 -10 5 -14 -3 -39 -1 -55 3 -22 7
-25 10 -10 11 l20 1 -20 10 c-29 13 40 0 85 -17z m80 -34 c-12 -8 -12 -10 -1
-10 8 0 12 -2 10 -5 -3 -2 -16 -1 -29 2 -22 6 -23 7 -4 14 27 11 42 10 24 -1z
m60 -20 c-8 -5 -19 -10 -25 -10 -5 0 -3 5 5 10 8 5 20 10 25 10 6 0 3 -5 -5
-10z m60 -20 c-8 -5 -19 -10 -25 -10 -5 0 -3 5 5 10 8 5 20 10 25 10 6 0 3 -5
-5 -10z m30 -10 c-8 -5 -19 -10 -25 -10 -5 0 -3 5 5 10 8 5 20 10 25 10 6 0 3
-5 -5 -10z m-6611 -61 c-11 -23 -22 -64 -25 -93 -5 -68 -4 -67 -38 -101 -16
-16 -26 -24 -22 -17 4 6 2 12 -3 12 -6 0 -11 -4 -11 -9 0 -8 -46 -30 -79 -37
-8 -1 -18 -9 -22 -16 -5 -7 -9 -9 -9 -4 0 6 -6 2 -12 -7 -7 -10 -24 -19 -37
-22 -13 -2 -35 -14 -48 -26 -12 -13 -26 -20 -29 -17 -3 3 -17 0 -31 -7 -13 -7
-36 -12 -49 -10 -14 1 -22 0 -20 -3 9 -8 -86 -52 -97 -45 -5 3 -7 1 -4 -4 7
-12 -50 -36 -63 -28 -5 3 -12 0 -16 -6 -4 -8 -3 -9 4 -5 7 4 12 5 12 1 0 -3
-10 -10 -22 -16 -13 -5 -38 -21 -57 -34 -26 -19 -36 -22 -43 -13 -5 10 -8 8
-8 -4 0 -11 -8 -19 -22 -20 -13 0 -28 -2 -35 -2 -7 -1 -18 -9 -26 -20 -8 -11
-27 -18 -50 -19 -20 0 -35 -3 -32 -5 6 -7 -19 -30 -27 -25 -5 2 -8 0 -8 -5 0
-5 -18 -15 -40 -22 -44 -15 -65 -33 -55 -49 3 -7 0 -8 -9 -5 -9 3 -16 1 -16
-6 0 -6 -4 -9 -9 -5 -5 3 -12 1 -16 -5 -3 -5 -16 -8 -28 -6 -11 1 -30 -5 -41
-16 -11 -10 -28 -18 -37 -18 -10 0 -21 -5 -24 -10 -3 -6 -17 -7 -31 -4 -17 4
-24 2 -24 -9 0 -10 -8 -13 -27 -10 -24 3 -25 2 -8 -6 18 -8 17 -10 -13 -16
-30 -7 -55 -25 -34 -25 5 0 9 -7 9 -15 0 -11 -4 -12 -14 -4 -10 9 -13 8 -13
-1 0 -7 -7 -10 -16 -6 -9 4 -22 2 -28 -3 -16 -13 -89 -35 -105 -32 -7 1 -10
-2 -6 -9 4 -7 1 -10 -6 -9 -18 2 -79 -23 -79 -33 0 -4 -5 -8 -11 -8 -5 0 -8 4
-4 9 3 5 1 12 -4 15 -5 4 -15 -7 -23 -24 -14 -33 -21 -36 -40 -17 -10 12 -15
12 -27 -1 -8 -8 -17 -10 -18 -5 -4 11 -53 5 -53 -7 0 -8 -115 -22 -197 -24
-28 0 -49 2 -46 7 6 11 -5 9 -30 -5 -20 -12 -18 -13 28 -19 l50 -6 -60 -3 -60
-3 65 -7 c54 -6 46 -7 -47 -6 -62 0 -113 3 -112 6 1 6 92 80 221 178 151 115
368 260 579 387 487 293 862 428 1402 504 4 1 -2 -17 -14 -40z m6885 21 c25
-10 46 -22 46 -24 0 -5 -91 31 -99 40 -9 8 8 4 53 -16z m103 -37 c-4 -3 1 -12
11 -20 15 -11 13 -12 -11 -1 -20 8 -24 14 -15 20 16 9 24 10 15 1z m-3957 -80
c-21 -38 -58 -75 -64 -65 -3 5 5 17 18 26 14 8 27 25 31 36 3 11 11 20 16 20
6 0 6 -7 -1 -17z m4130 -98 c23 -17 28 -25 17 -25 -9 0 -17 -5 -17 -10 0 -6
-8 -5 -20 2 -11 7 -20 23 -20 35 0 28 -1 28 40 -2z m-954 4 c143 -20 216 -62
329 -190 73 -83 79 -93 82 -138 1 -24 7 -48 14 -52 6 -4 8 -12 4 -19 -5 -9 -4
-11 3 -6 7 4 12 2 12 -3 0 -6 -6 -11 -12 -11 -9 0 -8 -4 2 -10 8 -5 13 -10 10
-10 -3 -1 -86 -5 -185 -10 -171 -8 -182 -7 -224 12 -41 20 -55 21 -330 15
-186 -4 -327 -11 -404 -22 -65 -10 -121 -15 -124 -12 -3 3 -25 74 -49 157 -24
84 -52 176 -64 206 -11 30 -20 62 -19 72 0 9 3 12 5 6 3 -7 23 -8 58 -3 30 4
161 10 292 14 132 4 241 9 243 11 9 9 285 3 357 -7z m-3333 -122 c-11 -12 -43
-57 -72 -99 -28 -43 -54 -78 -57 -78 -7 0 0 11 74 118 35 51 67 91 70 88 3 -4
-4 -16 -15 -29z m1842 -172 c14 -77 31 -162 36 -189 5 -27 6 -53 2 -57 -15
-14 -63 -22 -63 -10 0 6 -12 11 -27 10 l-28 -1 25 -7 c44 -12 -4 -22 -79 -16
-51 4 -61 3 -42 -5 32 -14 23 -21 -21 -14 l-35 6 -16 100 c-10 56 -24 114 -32
131 -8 17 -15 34 -15 39 0 6 -9 21 -20 35 -29 37 -27 71 5 71 15 0 25 -6 25
-15 0 -11 -4 -11 -22 -2 -23 12 -23 12 -4 -9 21 -24 44 -18 84 26 20 20 30 24
63 19 30 -4 42 -1 46 10 5 12 7 12 14 2 6 -11 9 -10 14 2 3 9 18 15 34 14 l29
0 27 -140z m-351 119 c3 -8 2 -12 -4 -9 -6 3 -10 10 -10 16 0 14 7 11 14 -7z
m-926 -281 c-21 -2 -55 -2 -75 0 -21 2 -4 4 37 4 41 0 58 -2 38 -4z m-864
-120 c-60 -94 -87 -133 -92 -133 -2 0 4 12 14 28 60 93 87 132 92 132 2 0 -4
-12 -14 -27z m1519 -49 c72 -9 56 -19 -35 -22 -46 -1 -128 -9 -183 -17 -178
-25 -971 -88 -984 -78 -24 18 165 52 300 53 30 0 60 5 66 11 7 7 90 15 215 20
216 9 490 27 495 33 6 6 79 6 126 0z m-7053 -68 c0 -3 -15 -14 -32 -26 l-33
-22 30 26 c31 27 35 29 35 22z m-70 -49 c0 -2 -10 -12 -22 -23 l-23 -19 19 23
c18 21 26 27 26 19z m1530 -77 c0 -5 -4 -10 -10 -10 -5 0 -10 5 -10 10 0 6 5
10 10 10 6 0 10 -4 10 -10z m147 4 c-3 -3 -12 -4 -19 -1 -8 3 -5 6 6 6 11 1
17 -2 13 -5z m146 -1 c-23 -2 -64 -2 -90 0 -26 2 -7 3 42 3 50 0 71 -1 48 -3z
m-376 -9 c-3 -3 -12 -4 -19 -1 -8 3 -5 6 6 6 11 1 17 -2 13 -5z m-214 -11
c-24 -2 -62 -2 -85 0 -24 2 -5 4 42 4 47 0 66 -2 43 -4z m9227 -98 c-7 -8 -17
-15 -23 -15 -6 0 -2 7 9 15 25 19 30 19 14 0z m-5083 -47 c-3 -8 -6 -5 -6 6
-1 11 2 17 5 13 3 -3 4 -12 1 -19z m-2497 -10 c-62 -14 -416 -16 -429 -2 -8 7
62 10 231 11 187 1 233 -1 198 -9z m-403 -81 c17 -18 -10 -22 -262 -42 -104
-8 -194 -20 -200 -26 -17 -17 14 -27 54 -17 20 5 72 12 116 14 44 3 118 9 165
15 47 6 117 12 155 14 l70 4 -75 -19 c-100 -26 -400 -86 -530 -106 -101 -15
-478 -98 -682 -150 -135 -34 -258 -83 -251 -100 3 -8 -13 -31 -36 -53 -37 -36
-71 -51 -111 -49 -12 1 -469 -129 -555 -157 -14 -4 -12 -2 5 9 14 8 30 15 37
16 6 0 36 23 65 51 46 44 81 70 174 126 10 6 52 28 92 48 39 21 72 42 72 48 0
6 3 7 7 4 3 -4 11 -3 17 2 6 5 29 14 51 21 22 7 45 18 50 24 6 7 18 15 28 19
9 3 17 11 17 17 0 12 -22 9 -32 -5 -5 -6 -8 -5 -8 3 0 8 -5 10 -12 6 -7 -5
-19 -9 -28 -10 -8 -1 -42 -5 -75 -9 -33 -3 -97 -15 -142 -26 -45 -11 -86 -18
-90 -17 -4 1 -24 -2 -43 -5 -19 -4 -64 -9 -100 -12 -103 -9 -151 -14 -210 -25
-141 -24 -195 -31 -325 -41 -77 -6 -192 -12 -255 -15 l-114 -5 29 29 c20 19
49 32 90 41 70 15 142 31 168 38 10 3 16 11 13 18 -3 9 9 15 41 20 24 3 86 17
136 31 151 40 518 118 847 178 80 15 190 36 245 46 136 25 274 41 435 50 160
10 947 7 957 -3z m-1378 -21 c-2 -3 -60 -12 -128 -21 -115 -15 -595 -100 -826
-146 -193 -38 -520 -129 -845 -235 -74 -24 -148 -43 -165 -43 -16 0 -47 1 -68
1 -21 1 -42 -3 -45 -8 -4 -6 -23 -11 -42 -12 -19 0 -53 -6 -75 -12 -22 -5 -62
-13 -90 -16 -149 -16 -208 -24 -222 -33 -9 -5 -33 -6 -53 -4 -23 3 -84 -6
-161 -25 -68 -17 -142 -33 -165 -36 -23 -3 -59 -12 -80 -20 -43 -17 -73 -22
-186 -37 -56 -6 -94 -18 -135 -41 -32 -17 -85 -46 -118 -65 -33 -18 -66 -33
-74 -33 -8 0 -23 -8 -34 -17 -19 -17 -20 -17 -9 3 24 45 225 204 356 281 127
74 385 182 538 224 62 17 118 35 123 39 16 12 146 39 161 33 8 -3 20 0 28 6
14 12 134 35 466 91 220 37 592 80 730 85 58 3 141 6 185 9 44 3 166 10 270
16 105 6 208 12 230 14 66 5 439 6 434 2z m2291 -12 c-405 -53 -774 -106 -855
-124 -87 -19 -348 -61 -353 -56 -7 8 3 10 278 60 436 78 488 86 694 107 111
11 203 22 205 25 2 2 34 3 70 3 65 -1 64 -2 -39 -15z m7388 -121 c-10 -2 -18
-9 -18 -14 0 -5 -10 -9 -22 -9 -23 0 -23 1 2 14 14 8 32 14 40 14 10 0 9 -2
-2 -5z m-205 -30 c-29 -2 -78 -2 -110 0 -32 2 -8 3 52 3 61 0 87 -1 58 -3z
m-294 -7 c-2 -3 -238 -10 -524 -15 -286 -6 -614 -15 -730 -21 -325 -15 -478
-16 -482 -5 -2 6 23 10 60 11 140 2 1003 26 1022 28 36 5 659 7 654 2z m-8389
-30 c0 -2 -7 -6 -15 -10 -8 -3 -15 -1 -15 4 0 6 7 10 15 10 8 0 15 -2 15 -4z
m240 -5 c-8 -5 -37 -12 -65 -15 l-50 -6 50 14 c28 8 57 14 65 15 13 0 13 -1 0
-8z m9509 -17 l93 -6 -4 -42 c-3 -23 -33 -99 -67 -169 -52 -109 -72 -138 -130
-196 -76 -77 -123 -99 -261 -125 -142 -27 -187 -23 -350 37 l-145 52 12 100
c6 55 12 152 12 215 1 63 5 120 9 127 5 9 53 13 152 16 172 4 547 -1 679 -9z
m-3164 -4 c-27 -5 -102 -9 -165 -9 -63 -1 -173 -5 -245 -10 -71 -5 -195 -12
-275 -14 -207 -7 -57 8 220 23 118 6 240 12 270 13 30 2 98 4 150 4 80 0 87
-1 45 -7z m-6472 -7 c-7 -2 -19 -2 -25 0 -7 3 -2 5 12 5 14 0 19 -2 13 -5z
m8781 -105 c-8 -222 -16 -318 -26 -318 -5 0 -53 11 -106 24 -153 38 -157 38
-178 14 -20 -22 -102 -63 -110 -55 -3 2 12 11 33 20 21 8 49 27 62 41 14 14
34 26 46 26 31 0 66 42 72 88 7 55 -23 76 -99 68 -29 -4 -95 -10 -146 -15 -51
-5 -100 -15 -108 -22 -9 -7 -37 -16 -62 -20 -26 -4 -59 -11 -74 -15 -23 -5
-28 -3 -28 13 0 11 6 28 14 38 12 16 33 20 152 26 77 4 157 13 179 19 39 12
39 13 15 22 -14 6 -36 16 -50 23 -42 22 -139 28 -185 11 -22 -8 -40 -20 -40
-27 0 -7 -13 -17 -30 -22 -16 -5 -41 -20 -55 -32 -22 -20 -37 -23 -110 -24
-94 -2 -768 -43 -1065 -66 -297 -22 -297 -22 -305 1 -4 10 -10 49 -14 85 l-6
67 92 1 c51 1 161 6 243 12 83 5 229 14 325 19 373 21 558 35 1305 99 50 5
129 9 176 10 l87 1 -4 -112z m-8929 77 c-169 -36 -504 -112 -664 -150 -167
-41 -151 -38 -151 -22 0 15 100 45 240 72 47 9 207 40 355 70 149 29 284 53
300 53 17 0 -19 -10 -80 -23z m10009 -1 c26 -9 46 -18 44 -20 -5 -4 -108 23
-116 30 -10 11 25 6 72 -10z m-4289 -9 c-5 -2 -75 -5 -155 -8 -80 -2 -131 -1
-115 3 29 7 290 12 270 5z m981 -187 l10 -77 -25 -6 c-14 -2 -71 -7 -126 -10
-172 -8 -349 -31 -498 -65 -56 -12 -67 -8 -67 25 0 27 14 30 185 40 177 10
302 34 279 54 -5 4 -28 13 -51 20 -24 6 -43 16 -43 21 0 15 -132 12 -192 -4
-71 -19 -85 -25 -139 -58 -37 -22 -48 -36 -53 -62 l-6 -33 -123 -7 c-141 -8
-130 -7 -597 -46 -652 -55 -1276 -112 -1482 -135 l-46 -5 -12 72 c-17 110 -20
122 -30 112 -9 -9 -4 -60 15 -150 9 -39 15 -37 -165 -59 -245 -31 -313 -49
-445 -113 -116 -57 -158 -86 -167 -114 -3 -9 -16 -5 -46 14 -49 33 -207 102
-282 123 -34 9 -43 14 -22 12 18 -2 32 1 32 7 0 6 5 4 10 -4 5 -8 10 -10 10
-5 0 6 12 12 27 13 29 2 73 27 86 49 4 7 12 13 18 13 5 0 28 17 51 38 22 20
44 36 49 35 5 -2 9 1 9 6 0 5 18 17 40 27 22 10 40 24 40 31 0 7 9 13 19 13
11 0 30 12 43 28 12 15 28 27 33 28 22 1 66 25 71 38 3 8 12 12 20 9 9 -3 14
1 14 13 0 9 3 14 6 11 4 -3 15 -2 26 4 20 11 20 11 -1 25 -26 19 -128 34 -386
59 -112 10 -634 14 -700 5 -54 -8 -76 -7 -64 4 6 5 155 19 394 37 223 16 727
-10 995 -51 74 -11 155 -24 180 -27 49 -6 60 -16 60 -50 0 -12 10 -27 21 -34
21 -11 21 -9 15 23 l-6 34 107 -14 c112 -14 336 -11 598 7 72 5 236 16 365 25
521 35 535 36 605 41 33 3 94 7 135 10 41 3 138 9 215 14 77 6 194 13 260 16
66 3 151 11 189 17 77 12 430 37 491 34 l40 -1 11 -77z m-10606 -19 c-60 -33
-242 -170 -332 -250 l-57 -51 -151 11 c-83 6 -277 11 -433 11 -165 0 -288 4
-297 10 -11 7 -6 10 20 10 35 0 221 54 357 103 190 69 741 184 893 186 l55 1
-55 -31z m10387 -260 c-6 -10 -25 -23 -41 -29 -49 -17 -54 -11 -8 10 38 17 42
23 36 42 -6 20 -5 21 9 10 13 -11 14 -17 4 -33z m-10303 -44 c-4 -8 -8 -15
-10 -15 -2 0 -4 7 -4 15 0 8 4 15 10 15 5 0 7 -7 4 -15z m-59 -19 c29 -21 21
-81 -15 -123 -26 -29 -36 -56 -31 -85 1 -11 1 -11 -57 17 -59 28 -131 47 -146
37 -6 -3 -3 5 7 18 9 14 22 35 27 48 5 12 13 22 18 22 5 0 33 18 62 40 57 43
101 51 135 26z m-515 -5 c33 -6 37 -9 15 -9 -16 0 -50 3 -75 7 -33 6 -37 9
-15 9 17 0 50 -3 75 -7z m3943 2 c-7 -2 -19 -2 -25 0 -7 3 -2 5 12 5 14 0 19
-2 13 -5z m1460 -28 c-7 -21 -13 -19 -13 6 0 11 4 18 10 14 5 -3 7 -12 3 -20z
m-4759 7 c3 -5 -1 -9 -9 -9 -8 0 -12 4 -9 9 3 4 7 8 9 8 2 0 6 -4 9 -8z m3139
1 c-7 -2 -19 -2 -25 0 -7 3 -2 5 12 5 14 0 19 -2 13 -5z m1194 -9 c-3 -3 -12
-4 -19 -1 -8 3 -5 6 6 6 11 1 17 -2 13 -5z m-3 -18 c47 -8 97 -9 159 -3 172
16 159 -11 -159 -333 -123 -124 -242 -237 -265 -249 -23 -13 -39 -19 -35 -12
16 25 -25 22 -56 -4 -61 -52 -15 -52 -678 5 -363 31 -437 33 -740 16 -416 -23
-696 -31 -703 -20 -3 6 -2 16 3 24 9 14 44 17 420 40 102 6 207 15 233 20 26
6 84 10 128 10 118 0 177 34 194 111 8 34 30 48 48 30 22 -22 49 -10 117 54
69 65 93 75 131 55 30 -17 23 -38 -35 -104 -30 -34 -56 -73 -58 -86 -3 -23 1
-24 107 -42 185 -30 474 -67 591 -74 l111 -7 36 37 c28 28 37 45 37 71 0 40
-33 80 -57 71 -8 -3 -20 -6 -26 -7 -7 -1 -1 -4 13 -8 16 -4 -6 -8 -58 -9 -46
-1 -93 3 -104 9 -30 16 -19 49 21 63 35 11 41 18 61 74 11 28 17 32 47 32 20
0 48 -9 65 -21 30 -21 31 -33 12 -83 -5 -13 1 -16 26 -16 29 0 34 5 52 49 13
29 31 54 45 60 13 6 30 26 38 45 18 43 2 94 -33 103 -13 3 -130 -4 -260 -16
-130 -12 -268 -24 -307 -27 -38 -3 -135 -15 -215 -26 -80 -12 -170 -22 -200
-24 -173 -11 -498 -47 -765 -84 -171 -23 -515 -53 -523 -46 -3 3 10 6 29 6 19
0 51 9 71 20 84 45 947 171 1683 245 187 19 392 41 455 49 142 17 254 18 344
2z m-1697 -52 c-3 -3 -12 -4 -19 -1 -8 3 -5 6 6 6 11 1 17 -2 13 -5z m-54 -11
c-7 -2 -21 -2 -30 0 -10 3 -4 5 12 5 17 0 24 -2 18 -5z m-128 -19 c-160 -28
-455 -87 -660 -131 -212 -46 -322 -56 -406 -38 -30 7 -31 9 -14 16 28 11 56
10 30 -1 -18 -8 -18 -9 -2 -9 19 -1 50 23 41 31 -4 4 116 42 171 54 11 3 74 6
141 8 66 1 125 6 132 10 6 3 27 7 47 8 19 1 35 4 35 8 0 4 47 6 105 3 69 -2
105 0 105 7 0 5 -5 10 -11 10 -5 0 -7 5 -4 10 3 6 -4 10 -16 10 -12 0 -20 2
-17 6 3 3 43 0 89 -6 66 -8 101 -7 164 4 44 7 96 14 115 14 19 0 -1 -6 -45
-14z m-2560 -74 c-10 -11 -20 -18 -23 -15 -7 6 18 35 31 35 5 0 2 -9 -8 -20z
m-271 -6 c9 -3 14 -10 11 -14 -10 -17 68 -33 129 -26 46 5 57 3 48 -6 -6 -6
-50 -14 -97 -16 -67 -4 -90 -1 -110 12 -21 14 -24 20 -15 36 12 22 12 22 34
14z m4361 -54 c4 -6 -3 -25 -14 -43 l-21 -32 0 43 c0 30 4 42 14 42 8 0 18 -5
21 -10z m-376 -44 c-9 -8 -10 -7 -5 7 3 10 7 24 7 30 1 7 3 4 6 -7 3 -10 -1
-23 -8 -30z m951 8 c-25 -29 -29 -39 -18 -45 9 -6 7 -9 -9 -9 -13 0 -23 2 -23
5 0 7 71 85 77 85 3 0 -9 -16 -27 -36z m-3535 -3 c33 -5 112 -12 175 -15 63
-4 139 -12 168 -18 45 -10 55 -9 63 3 6 11 13 11 26 3 24 -15 48 -60 102 -198
50 -126 64 -176 50 -176 -14 0 -10 -37 4 -43 10 -4 444 -1 652 5 6 0 89 -3
185 -6 96 -3 191 -2 210 3 19 5 27 9 18 10 -10 1 -18 8 -18 17 0 14 14 15 118
10 154 -9 331 -24 412 -36 105 -15 218 -21 195 -11 l-20 10 20 0 c11 1 82 -6
157 -13 75 -8 215 -18 310 -22 l173 -7 60 38 c33 22 138 117 232 212 95 95
177 173 182 173 21 0 375 -112 491 -155 69 -26 133 -47 143 -48 9 -1 17 -3 17
-5 0 -2 -23 -29 -51 -60 -36 -41 -189 -257 -203 -288 -1 -1 -51 4 -111 12
-144 16 -420 34 -566 35 l-116 1 -45 -48 c-110 -119 -398 -464 -447 -537 -27
-40 -35 -46 -51 -37 -27 15 -268 12 -480 -5 -360 -29 -627 -56 -745 -75 -66
-11 -136 -22 -155 -24 -19 -3 -91 -16 -159 -30 -68 -15 -131 -26 -140 -26 -9
0 38 32 104 72 307 182 767 366 1310 524 399 116 474 142 453 156 -7 5 -33 8
-58 7 -65 -1 -72 0 -65 11 4 6 -16 11 -52 12 -66 1 -84 3 -173 18 -35 6 -70 8
-77 6 -7 -3 -15 -1 -18 4 -6 10 -66 7 -85 -5 -9 -6 -11 -4 -5 5 6 10 0 12 -23
8 -17 -2 -33 0 -35 5 -10 31 -404 52 -465 25 l-33 -15 40 -11 c22 -7 70 -12
108 -12 37 1 82 -4 98 -9 23 -8 -2 -10 -103 -6 -96 3 -137 8 -147 19 -8 7 -11
17 -7 21 4 4 -4 2 -17 -5 -20 -10 -109 -19 -236 -24 -22 0 -46 -8 -53 -16 -12
-13 -13 -13 -8 4 5 14 2 17 -10 12 -8 -3 -20 -6 -25 -6 -6 0 -8 -4 -4 -9 3 -6
-3 -9 -14 -8 -11 0 -17 5 -15 9 8 13 -8 9 -26 -7 -18 -17 -104 -31 -169 -28
-25 1 -50 -1 -55 -6 -13 -10 -92 -7 -121 3 -16 6 -17 6 -5 -3 19 -14 13 -14
-50 0 -35 8 -50 15 -50 27 -1 15 -2 15 -11 0 -5 -10 -15 -18 -20 -18 -6 0 -7
5 -4 11 4 6 -2 13 -14 16 -12 3 -21 8 -21 12 0 4 -41 8 -91 10 -74 2 -95 -1
-110 -15 -10 -9 -16 -21 -13 -25 3 -5 -1 -9 -8 -9 -7 0 -35 -32 -63 -70 -44
-62 -69 -92 -49 -57 58 98 169 257 180 257 8 0 14 4 14 10 0 16 -63 22 -144
11 -43 -5 -85 -7 -92 -4 -7 3 -46 70 -86 149 -40 80 -84 158 -99 174 -48 53
-71 55 -594 55 -492 0 -604 -6 -630 -32 -8 -8 -15 -10 -15 -5 0 6 -9 8 -20 5
-14 -4 -20 0 -20 11 0 9 8 16 19 16 10 0 24 7 31 15 27 33 111 48 300 55 290
10 729 11 795 1z m2165 5 c0 -3 -4 -8 -10 -11 -5 -3 -10 -1 -10 4 0 6 5 11 10
11 6 0 10 -2 10 -4z m50 -10 c0 -2 -8 -10 -17 -17 -16 -13 -17 -12 -4 4 13 16
21 21 21 13z m2156 -28 c-9 -5 -23 -5 -32 0 -12 6 -7 9 16 9 23 0 28 -3 16 -9z
m-3700 -46 c-4 -3 -12 0 -19 7 -9 9 -9 14 3 21 11 7 16 5 18 -6 2 -9 1 -18 -2
-22z m3664 23 c0 -2 -44 -46 -97 -99 l-98 -96 -70 24 c-38 13 -128 44 -200 68
l-130 45 163 -3 c108 -2 162 1 162 8 0 7 4 7 13 1 15 -13 50 -13 58 -1 3 5 16
5 30 0 13 -5 31 -8 39 -6 8 2 29 7 45 10 38 8 65 32 58 50 -4 10 0 12 11 8 9
-3 16 -7 16 -9z m-5999 -12 c13 -16 12 -17 -3 -4 -10 7 -18 15 -18 17 0 8 8 3
21 -13z m390 -2 c-11 -7 -4 -10 25 -13 21 -2 -12 -7 -73 -11 -112 -9 -173 -4
-173 13 0 5 39 11 88 13 48 1 101 4 117 5 21 1 26 -1 16 -7z m-1201 -26 c0 -2
-11 -15 -24 -28 -12 -13 -25 -29 -28 -37 -2 -7 -9 -11 -16 -9 -8 3 -1 18 19
42 26 32 49 47 49 32z m140 -8 c0 -2 -10 -12 -22 -23 l-23 -19 19 23 c18 21
26 27 26 19z m160 -1 c0 -2 -8 -10 -17 -17 -16 -13 -17 -12 -4 4 13 16 21 21
21 13z m160 -24 c0 -13 -23 -32 -37 -32 -11 0 -11 5 -3 20 10 19 40 28 40 12z
m1444 -10 c2 -4 -11 -24 -30 -44 -19 -21 -34 -33 -34 -28 0 6 -7 10 -15 10
-22 0 -6 26 31 50 33 21 41 23 48 12z m178 -42 c-20 -27 -39 -44 -41 -37 -2 6
-8 15 -14 18 -14 9 10 48 36 59 53 21 57 12 19 -40z m238 46 c0 -3 -24 -41
-54 -86 -30 -45 -56 -86 -58 -91 -2 -6 -18 -9 -37 -7 l-33 3 62 83 c55 73 83
99 113 101 4 1 7 -1 7 -3z m-830 -21 c-7 -9 -15 -13 -17 -11 -7 7 7 26 19 26
6 0 6 -6 -2 -15z m200 9 c0 -3 -15 -29 -33 -57 -19 -29 -44 -69 -56 -89 -24
-41 -51 -50 -51 -18 0 18 53 110 89 153 13 16 51 24 51 11z m-1070 -14 c0 -5
-7 -7 -15 -4 -8 4 -15 8 -15 10 0 2 7 4 15 4 8 0 15 -4 15 -10z m3367 -36 c-3
-3 -12 -4 -19 -1 -8 3 -5 6 6 6 11 1 17 -2 13 -5z m193 -4 c-8 -5 -26 -9 -40
-9 l-25 1 25 8 c14 4 32 8 40 9 13 1 13 0 0 -9z m-4560 -4 c0 -3 -4 -8 -10
-11 -5 -3 -10 -1 -10 4 0 6 5 11 10 11 6 0 10 -2 10 -4z m50 -6 c0 -5 -7 -10
-16 -10 -8 0 -12 5 -9 10 3 6 10 10 16 10 5 0 9 -4 9 -10z m115 -7 c-4 -10
-13 -45 -21 -78 l-14 -60 6 63 c6 72 12 92 26 92 6 0 7 -8 3 -17z m106 -26
c-10 -9 -11 -8 -5 6 3 10 9 15 12 12 3 -3 0 -11 -7 -18z m663 5 c3 -5 -1 -9
-9 -9 -8 0 -12 4 -9 9 3 4 7 8 9 8 2 0 6 -4 9 -8z m1886 4 c0 -2 -8 -10 -17
-17 -16 -13 -17 -12 -4 4 13 16 21 21 21 13z m-2400 -93 c0 -82 27 -380 40
-454 6 -33 9 -63 7 -66 -6 -5 -25 106 -38 217 -15 125 -25 360 -16 360 4 0 7
-26 7 -57z m1106 37 c23 -9 26 -14 20 -43 -4 -17 -11 -59 -17 -92 -18 -115
-20 -126 -28 -120 -5 2 -11 19 -15 37 -6 28 -8 30 -17 16 -14 -25 -29 -22 -30
5 -1 17 -3 15 -8 -8 -5 -23 -12 -30 -29 -29 -12 0 -22 -5 -22 -11 0 -7 -7 -19
-17 -26 -15 -13 -16 -10 -10 34 4 28 3 47 -3 47 -6 0 -10 17 -11 38 -1 49 -5
35 -20 -74 -9 -66 -16 -91 -25 -87 -7 3 -12 21 -12 42 0 21 -6 49 -13 62 -13
24 -13 24 -21 -15 -11 -53 -14 -54 -36 -16 l-20 31 -11 -31 c-18 -54 -31 -23
-32 78 l-2 97 -9 -94 c-5 -52 -11 -97 -13 -100 -3 -2 -10 0 -17 7 -7 7 -11 52
-11 119 0 59 -2 92 -4 73 -2 -19 -6 -42 -9 -50 -3 -8 -7 -41 -8 -72 -1 -32 -5
-60 -8 -64 -11 -10 -22 68 -20 138 1 53 6 73 24 93 l22 25 202 0 c114 0 214
-4 230 -10z m1251 -3 c0 -8 -6 -14 -14 -14 -9 0 -10 4 -2 14 6 7 12 13 14 13
1 0 2 -6 2 -13z m-2497 -114 c0 -60 2 -133 5 -163 4 -53 4 -53 -4 -10 -14 77
-22 280 -11 280 6 0 10 -42 10 -107z m633 87 c-3 -11 -7 -20 -9 -20 -2 0 -4 9
-4 20 0 11 4 20 9 20 5 0 7 -9 4 -20z m-176 -142 c-2 -29 -3 -6 -3 52 0 58 1
81 3 53 2 -29 2 -77 0 -105z m-149 -66 c7 -115 17 -235 23 -266 6 -32 8 -60 6
-63 -9 -9 -27 127 -42 322 -18 236 -17 215 -7 215 4 0 13 -94 20 -208z m3079
202 c-3 -3 -12 -4 -19 -1 -8 3 -5 6 6 6 11 1 17 -2 13 -5z m-3619 -46 c5 -45
43 -227 61 -291 43 -156 87 -255 140 -317 28 -32 51 -64 51 -72 0 -8 3 -9 8
-3 4 7 36 3 92 -12 l85 -22 -124 6 c-90 4 -122 2 -117 -6 10 -15 -7 -14 -24 2
-12 10 -12 9 -2 -4 18 -24 274 -47 702 -64 191 -7 316 -15 343 -22 12 -3 162
-9 332 -13 444 -12 444 -12 410 -19 -21 -4 -6 -8 50 -12 114 -10 -546 0 -820
11 -343 15 -798 48 -900 66 -91 15 -152 42 -147 63 1 6 -4 10 -10 9 -7 -2 -12
3 -10 10 1 6 -1 11 -5 10 -5 -2 -10 2 -12 7 -2 6 -12 22 -23 37 -42 60 -110
256 -143 416 -17 85 -20 185 -5 213 12 21 66 27 68 7z m2722 -159 c-5 -79 -10
-202 -11 -274 -1 -133 -16 -235 -18 -125 -1 66 18 471 25 519 11 75 13 15 4
-120z m381 58 c-10 -9 -11 -8 -5 6 3 10 9 15 12 12 3 -3 0 -11 -7 -18z m-2244
-119 c-2 -24 -4 -7 -4 37 0 44 2 63 4 43 2 -21 2 -57 0 -80z m1810 20 c-2 -13
-4 -3 -4 22 0 25 2 35 4 23 2 -13 2 -33 0 -45z m-1965 -78 c4 -74 3 -97 -2
-65 -8 51 -13 192 -6 184 2 -2 6 -56 8 -119z m2313 6 c-66 -128 -98 -179 -222
-347 -87 -118 -98 -128 -171 -169 -42 -24 -83 -50 -90 -59 -10 -13 -47 -16
-210 -19 -138 -2 -193 0 -182 7 8 6 36 11 63 11 26 0 47 4 47 9 0 5 62 10 138
13 l138 4 76 47 c42 27 97 73 125 105 87 99 219 291 263 381 47 96 70 135 76
129 2 -3 -21 -53 -51 -112z m1760 94 c3 -5 -1 -10 -9 -10 -9 0 -16 5 -16 10 0
6 4 10 9 10 6 0 13 -4 16 -10z m70 -10 c-3 -5 -12 -7 -20 -3 -21 7 -19 13 6
13 11 0 18 -4 14 -10z m-2188 -183 c-2 -23 -3 -1 -3 48 0 50 1 68 3 42 2 -26
2 -67 0 -90z m-2410 71 c-3 -7 -5 -2 -5 12 0 14 2 19 5 13 2 -7 2 -19 0 -25z
m14530 0 c-3 -8 -6 -5 -6 6 -1 11 2 17 5 13 3 -3 4 -12 1 -19z m101 15 c-10
-2 -26 -2 -35 0 -10 3 -2 5 17 5 19 0 27 -2 18 -5z m-14011 -50 c-3 -10 -5 -4
-5 12 0 17 2 24 5 18 2 -7 2 -21 0 -30z m14132 8 c45 -29 122 -101 108 -101
-4 0 -33 21 -64 46 -67 55 -71 52 -72 -63 -1 -40 -5 -94 -10 -120 -5 -26 -15
-78 -22 -115 -7 -38 -16 -68 -21 -68 -11 0 -9 111 3 180 12 66 15 102 17 198
1 39 5 72 9 72 3 0 27 -13 52 -29z m-326 -56 c8 -18 -11 -31 -25 -17 -11 11
-3 32 12 32 4 0 10 -7 13 -15z m-43 1 c0 -2 -8 -10 -17 -17 -16 -13 -17 -12
-4 4 13 16 21 21 21 13z m-13913 -48 c-3 -7 -5 -2 -5 12 0 14 2 19 5 13 2 -7
2 -19 0 -25z m13987 -62 c5 -33 4 -46 -3 -41 -6 3 -11 27 -11 52 0 57 5 53 14
-11z m-167 7 c-8 -10 -27 -38 -40 -62 l-25 -44 19 -34 c11 -19 27 -45 35 -59
9 -13 12 -24 6 -24 -10 0 49 -113 89 -172 12 -17 15 -29 8 -33 -7 -5 -6 -12 3
-23 12 -15 11 -16 -5 -3 -9 8 -15 16 -13 18 3 3 -12 19 -31 36 -29 26 -108
115 -163 184 -6 7 -7 19 -4 28 6 14 10 13 30 -6 32 -30 40 -19 13 15 -21 27
-21 29 -5 63 27 56 87 146 93 139 3 -3 -1 -14 -10 -23z m-14110 -35 c-3 -7 -5
-2 -5 12 0 14 2 19 5 13 2 -7 2 -19 0 -25z m7291 -25 c-16 -2 -40 -2 -55 0
-16 2 -3 4 27 4 30 0 43 -2 28 -4z m131 -9 c9 -8 -55 -2 -74 6 -13 6 -5 7 25
3 25 -3 47 -7 49 -9z m7270 -60 c-13 -28 -24 -42 -26 -34 -2 9 6 38 19 65 12
29 23 43 25 34 2 -8 -6 -38 -18 -65z m51 -3 c-16 -31 -41 -75 -55 -98 -21 -34
-23 -43 -11 -43 24 0 19 -14 -16 -51 -35 -38 -51 -26 -23 18 12 17 14 28 6 32
-6 4 9 36 40 85 28 43 55 92 61 108 7 21 13 26 19 17 4 -7 -4 -35 -21 -68z
m-7577 62 c-7 -2 -21 -2 -30 0 -10 3 -4 5 12 5 17 0 24 -2 18 -5z m-88 -13 c3
-5 2 -10 -4 -10 -5 0 -13 5 -16 10 -3 6 -2 10 4 10 5 0 13 -4 16 -10z m444
-21 c28 -17 32 -24 27 -47 -4 -15 -11 -54 -17 -87 -29 -189 -84 -400 -126
-490 l-28 -60 -3 45 c-2 25 1 61 7 80 5 19 13 58 16 85 4 28 20 130 36 229 16
98 29 193 29 212 0 19 5 34 11 34 5 0 7 5 4 10 -10 16 7 12 44 -11z m-502 -42
c-2 -46 46 -269 93 -437 31 -109 36 -145 22 -154 -14 -9 -48 38 -55 75 -12 61
-140 454 -154 470 -30 35 -11 73 44 88 43 12 52 4 50 -42z m7773 28 c0 -8 -16
-48 -36 -89 -26 -53 -40 -73 -50 -69 -8 3 -13 8 -11 12 2 3 21 43 43 88 36 74
54 94 54 58z m-7142 -48 c2 -12 -1 -15 -12 -11 -19 7 -22 38 -3 32 6 -3 13
-12 15 -21z m6666 -14 c8 -53 6 -253 -4 -283 -6 -17 -8 -1 -9 55 -1 44 -8 116
-16 160 -18 103 -18 105 4 105 14 0 20 -10 25 -37z m-1166 -9 c-6 -6 -243 -54
-393 -80 -348 -60 -877 -146 -880 -142 -1 1 -5 23 -6 48 l-4 45 60 8 c33 5
132 19 220 32 219 34 608 84 675 87 88 5 332 6 328 2z m-7374 -39 c-4 -8 -11
-15 -16 -15 -6 0 -5 6 2 15 7 8 14 15 16 15 2 0 1 -7 -2 -15z m64 -12 c-2 -10
-8 -17 -13 -16 -6 1 -15 -3 -20 -7 -6 -5 -17 -5 -25 0 -13 8 -13 10 1 10 9 0
19 7 23 15 8 21 38 19 34 -2z m2036 -87 c21 -23 56 -65 78 -94 l39 -53 -45
-47 c-39 -40 -43 -47 -26 -50 30 -5 82 38 76 63 -5 19 -4 19 8 2 17 -22 112
-262 121 -302 3 -17 -9 8 -28 55 -31 79 -53 126 -75 158 -7 11 -16 10 -45 -4
-20 -10 -34 -21 -31 -26 3 -5 2 -8 -3 -7 -18 4 -45 -15 -54 -38 -5 -15 -15
-23 -23 -20 -7 3 -42 -17 -77 -45 -35 -28 -90 -68 -122 -88 -31 -21 -65 -47
-75 -58 -23 -28 -91 -62 -122 -62 -24 0 -23 2 17 38 23 20 124 118 224 217
101 99 187 179 192 177 5 -1 6 2 2 7 -3 6 8 17 26 26 l31 17 -22 23 c-19 20
-26 22 -44 13 -20 -10 -20 -10 -4 8 16 19 16 21 -22 58 -35 34 -42 37 -57 25
-17 -13 -17 -13 -3 5 13 17 11 21 -18 47 -18 16 -32 36 -32 45 0 18 46 -18
114 -90z m-1114 74 c-6 -11 -16 -20 -22 -20 -6 0 -3 9 7 20 10 11 20 20 22 20
2 0 -1 -9 -7 -20z m-4330 -4 c0 -2 -8 -10 -17 -17 -16 -13 -17 -12 -4 4 13 16
21 21 21 13z m4238 -66 c-7 -11 -17 -20 -22 -20 -5 0 -1 9 9 20 10 11 20 20
22 20 2 0 -2 -9 -9 -20z m5177 -90 c-3 -4 -28 -10 -58 -13 -29 -4 -69 -9 -88
-12 -21 -4 -11 2 26 15 64 22 104 58 106 93 1 12 5 0 10 -27 4 -28 6 -53 4
-56z m-9500 80 c-15 -24 -135 -79 -195 -90 -94 -17 -786 -15 -1115 4 -261 14
-263 14 -80 10 105 -2 381 -7 615 -10 528 -8 635 3 739 71 41 27 44 29 36 15z
m12251 -17 c-10 -10 -19 5 -10 18 6 11 8 11 12 0 2 -7 1 -15 -2 -18z m-14571
-12 c67 -8 68 -8 19 -10 -66 -1 -144 9 -144 20 0 5 12 6 28 3 15 -3 59 -9 97
-13z m425 -21 l105 -7 -95 0 c-52 -1 -138 3 -190 7 l-95 7 85 0 c47 0 132 -3
190 -7z m14129 -58 c-55 -59 -132 -112 -145 -99 -4 4 12 24 35 45 24 20 61 54
84 74 23 21 51 38 61 38 15 0 7 -13 -35 -58z m-13902 41 c-20 -2 -52 -2 -70 0
-17 2 0 4 38 4 39 0 53 -2 32 -4z m4176 0 c-7 -2 -19 -2 -25 0 -7 3 -2 5 12 5
14 0 19 -2 13 -5z m-4473 -18 c173 -9 533 -24 800 -34 354 -13 491 -22 506
-31 12 -7 26 -27 33 -45 13 -36 14 -382 2 -458 -14 -84 -6 -82 -278 -68 -131
6 -308 16 -393 21 -85 6 -272 17 -415 25 -641 36 -686 39 -703 51 -14 10 -17
46 -24 254 -6 175 -5 247 3 257 6 7 8 13 3 13 -5 0 2 7 16 14 33 19 81 19 450
1z m4371 6 c-9 -6 8 -7 45 -4 47 4 62 2 73 -10 19 -23 5 -54 -37 -82 -33 -23
-47 -25 -137 -25 -55 0 -320 -11 -590 -24 -269 -13 -505 -22 -523 -19 l-33 5
27 14 c33 18 159 40 302 54 59 6 166 17 237 24 l130 14 -93 0 c-51 0 -95 2
-98 4 -2 3 67 10 153 17 87 7 223 19 303 26 184 16 260 18 241 6z m1799 -51
c-11 -16 -26 -33 -32 -36 -7 -4 1 9 16 29 34 44 46 50 16 7z m5100 16 c0 -6
-161 -28 -167 -23 -2 3 24 9 59 15 72 11 108 14 108 8z m-192 -33 c-10 -2 -26
-2 -35 0 -10 3 -2 5 17 5 19 0 27 -2 18 -5z m2787 -5 c5 4 5 1 1 -6 -6 -10
-11 -10 -22 -1 -8 6 -14 14 -14 16 0 3 6 0 13 -6 8 -6 18 -7 22 -3z m-2857 -5
c-10 -2 -26 -2 -35 0 -10 3 -2 5 17 5 19 0 27 -2 18 -5z m-4832 -48 c1 -8 -2
-15 -7 -15 -18 0 -9 -49 11 -60 24 -13 41 -5 33 15 -3 8 0 15 7 15 10 0 10 3
0 15 -7 8 -16 13 -19 10 -4 -2 -8 2 -8 10 0 10 8 8 27 -8 15 -12 26 -25 23
-29 -2 -4 12 -10 32 -14 25 -4 35 -12 35 -24 0 -20 86 -101 133 -126 47 -25
30 3 -47 79 -64 63 -96 103 -96 121 0 3 32 5 71 4 41 -1 65 -5 57 -9 -10 -7
-10 -9 0 -9 6 0 12 -6 12 -12 0 -7 6 -24 13 -38 61 -114 117 -223 117 -229 0
-19 -34 -4 -63 28 -23 25 -42 36 -63 37 -20 1 -51 17 -91 48 -37 29 -69 46
-80 44 -13 -3 6 -20 67 -61 122 -82 206 -151 294 -242 73 -75 78 -79 87 -57 4
12 12 22 16 22 16 0 37 -19 30 -26 -4 -4 -13 -2 -19 4 -9 9 -15 5 -25 -19
l-13 -32 -78 75 c-43 41 -105 94 -138 116 -32 23 -103 73 -158 111 -54 37
-101 72 -105 78 -9 14 -105 70 -127 75 -33 6 -29 45 8 78 18 16 29 30 24 30
-5 0 -3 7 4 15 14 17 32 7 36 -20z m7751 3 c-3 -8 -6 -5 -6 6 -1 11 2 17 5 13
3 -3 4 -12 1 -19z m-6497 8 c0 -2 -8 -10 -17 -17 -16 -13 -17 -12 -4 4 13 16
21 21 21 13z m-4245 -56 c27 -7 25 -8 -17 -9 -26 0 -50 4 -53 9 -7 11 25 11
70 0z m-78 -16 c-3 -3 -12 -4 -19 -1 -8 3 -5 6 6 6 11 1 17 -2 13 -5z m10838
-13 c3 -5 0 -21 -6 -35 -10 -20 -9 -32 1 -53 12 -28 12 -28 21 -5 13 36 28 26
23 -15 -10 -65 -12 -68 -39 -39 -14 15 -29 25 -33 22 -11 -7 -12 33 0 87 10
45 20 58 33 38z m-6585 -15 c0 -2 -8 -10 -17 -17 -16 -13 -17 -12 -4 4 13 16
21 21 21 13z m7130 -31 c0 -16 -6 -25 -15 -25 -8 0 -15 -4 -15 -9 0 -4 -19
-11 -42 -14 -135 -17 -270 -49 -288 -67 -11 -11 -24 -20 -29 -20 -19 0 -20 31
-1 50 21 21 29 23 135 40 39 7 104 24 145 40 96 36 110 37 110 5z m-890 -5
c34 -11 75 -20 90 -20 15 0 45 -8 66 -17 l39 -18 -46 -3 c-40 -3 -218 30 -241
44 -15 10 -8 34 11 34 10 0 47 -9 81 -20z m-7540 -4 c0 -2 -14 -34 -31 -72
-39 -85 -92 -289 -85 -326 3 -15 0 -28 -6 -30 -6 -2 9 -10 33 -17 67 -20 95
-33 82 -38 -14 -5 -112 14 -129 25 -35 22 81 462 122 462 8 0 14 -2 14 -4z
m6656 -31 c4 -8 12 -15 20 -15 8 0 14 -6 14 -14 0 -10 -19 -18 -52 -25 -53
-11 -486 -74 -628 -92 -41 -5 -106 -13 -145 -19 -38 -6 -144 -19 -235 -30 -91
-11 -173 -23 -182 -26 -13 -4 -19 2 -24 23 -3 15 -10 43 -16 61 -5 18 -8 35
-6 37 2 2 91 13 198 25 107 11 317 34 465 50 311 34 332 36 478 38 88 2 109
-1 113 -13z m1144 -25 c0 -5 -7 -10 -16 -10 -8 0 -12 5 -9 10 3 6 10 10 16 10
5 0 9 -4 9 -10z m-310 -16 c0 -2 -7 -4 -15 -4 -8 0 -15 4 -15 10 0 5 7 7 15 4
8 -4 15 -8 15 -10z m-6331 -44 c-21 -19 -39 -26 -39 -15 0 13 55 56 58 45 2
-6 -6 -20 -19 -30z m6466 26 c11 -2 39 -4 63 -5 48 -1 58 -21 10 -21 -53 0
-158 21 -158 32 0 6 13 8 33 4 17 -3 41 -8 52 -10z m211 -39 c3 -8 -15 -61
-39 -118 -24 -57 -47 -112 -50 -122 -4 -10 -11 -15 -17 -12 -16 10 -12 45 10
80 11 18 27 52 35 76 9 23 23 51 31 61 9 9 14 24 11 33 -4 8 -2 15 4 15 5 0
12 -6 15 -13z m215 -72 c41 -44 64 -77 61 -87 -5 -26 -20 -22 -49 12 -13 17
-29 30 -35 30 -12 0 -58 47 -58 59 0 5 -7 14 -15 21 -23 19 -19 41 8 38 13 -2
51 -33 88 -73z m-7372 -7 c0 -50 -3 -67 -9 -53 -12 28 -12 125 0 125 6 0 10
-30 9 -72z m4714 14 c5 -30 7 -55 5 -57 -5 -5 -359 -51 -618 -80 -202 -22
-554 -64 -1432 -170 -158 -19 -304 -35 -325 -35 l-38 0 27 14 c15 8 63 18 107
22 108 9 116 30 10 26 -52 -2 -79 0 -79 7 0 6 -12 11 -26 11 -16 0 -24 5 -22
13 6 15 48 22 48 7 0 -6 9 -5 23 4 31 21 86 31 342 65 194 26 372 48 875 107
74 8 203 24 285 34 379 47 761 89 790 87 16 -2 22 -12 28 -55z m-3685 -47 c0
-16 -2 -15 -8 5 -4 14 -8 34 -8 45 0 16 2 15 8 -5 4 -14 8 -34 8 -45z m9 -72
c-3 -10 -5 -2 -5 17 0 19 2 27 5 18 2 -10 2 -26 0 -35z m-1541 -10 c6 -2 15 7
21 21 9 18 17 22 37 19 38 -8 47 -26 44 -89 l-3 -58 -43 -12 c-41 -12 -42 -12
-31 7 6 11 8 27 5 34 -6 17 -44 15 -50 -2 -3 -7 -16 -13 -29 -13 l-24 0 25 72
c21 59 27 68 32 48 3 -13 10 -25 16 -27z m-3557 -10 c36 -20 77 -44 91 -53 14
-10 70 -43 125 -75 55 -32 154 -92 220 -134 66 -43 138 -86 159 -97 22 -10 41
-25 44 -33 3 -8 0 -11 -6 -7 -12 7 -44 -3 -38 -13 2 -3 -2 -12 -10 -19 -12
-11 -14 -10 -14 4 0 13 -3 14 -15 4 -8 -7 -15 -19 -15 -26 0 -8 -5 -14 -11
-14 -5 0 -7 6 -3 13 5 9 3 9 -7 -1 -8 -7 -14 -18 -14 -25 -1 -7 -6 -11 -13 -9
-7 1 -12 -5 -12 -13 0 -14 -5 -17 -40 -19 -8 -1 -15 -8 -15 -16 0 -16 2 -16
235 -4 52 2 122 9 155 14 75 12 176 13 155 1 -23 -13 -259 -40 -410 -46 -74
-4 -195 -13 -268 -21 -74 -8 -156 -14 -183 -14 -93 0 -218 70 -384 214 -117
102 -255 226 -348 311 l-88 82 233 8 c128 4 265 11 303 15 39 4 79 8 89 8 11
1 49 -14 85 -35z m11241 17 c0 -5 -5 -10 -11 -10 -5 0 -7 5 -4 10 3 6 8 10 11
10 2 0 4 -4 4 -10z m49 -22 c-5 -18 -10 -49 -11 -68 -1 -29 -2 -26 -7 15 -7
60 -3 85 14 85 11 0 11 -8 4 -32z m65 -40 c53 -148 115 -511 96 -563 -7 -20
-19 43 -55 279 -9 61 -28 148 -43 195 -25 85 -39 161 -29 161 3 0 17 -33 31
-72z m136 41 c0 -11 -4 -17 -10 -14 -5 3 -10 13 -10 21 0 8 5 14 10 14 6 0 10
-9 10 -21z m75 -7 c-3 -3 -11 0 -18 7 -9 10 -8 11 6 5 10 -3 15 -9 12 -12z
m-6458 -14 c-3 -8 -6 -5 -6 6 -1 11 2 17 5 13 3 -3 4 -12 1 -19z m23 -50 c0
-5 -4 -8 -10 -8 -5 0 -10 10 -10 23 0 18 2 19 10 7 5 -8 10 -18 10 -22z m6548
10 c-2 -7 3 -12 11 -13 8 0 15 -7 16 -16 2 -12 -3 -15 -19 -11 -20 5 -46 25
-46 36 0 2 8 7 18 9 9 3 18 5 20 6 1 0 1 -4 0 -11z m-13211 -24 c-3 -3 -12 -4
-19 -1 -8 3 -5 6 6 6 11 1 17 -2 13 -5z m6618 -4 c-7 -12 -45 -14 -45 -2 0 4
11 9 26 10 14 1 23 -2 19 -8z m5995 -4 c0 -2 -8 -10 -17 -17 -16 -13 -17 -12
-4 4 13 16 21 21 21 13z m-6985 -26 c-3 -5 -13 -10 -21 -10 -8 0 -12 5 -9 10
3 6 13 10 21 10 8 0 12 -4 9 -10z m85 -10 c9 -5 19 -5 28 2 22 19 36 -7 38
-70 1 -84 3 -89 20 -96 16 -6 49 8 72 31 7 7 21 12 30 12 15 -1 15 -2 0 -6
-10 -2 -18 -8 -18 -13 0 -5 43 -42 95 -81 52 -40 92 -76 90 -80 -3 -4 3 -13
12 -20 9 -8 47 -51 85 -96 38 -46 125 -138 194 -206 117 -115 124 -124 110
-142 -14 -19 -18 -17 -90 54 -43 43 -72 79 -69 87 3 8 1 14 -4 14 -4 0 -40 30
-78 66 -39 36 -117 104 -175 151 -58 47 -113 97 -124 112 -10 14 -35 39 -55
54 -31 25 -43 28 -82 24 -46 -4 -47 -4 -29 16 14 15 17 25 9 44 -5 13 -9 36
-9 51 0 37 -37 74 -61 61 -24 -12 -25 -31 -2 -22 16 6 16 5 -1 -22 -13 -20
-15 -30 -8 -33 17 -5 15 -27 -4 -43 -16 -13 -25 -7 -38 26 -2 6 -9 5 -17 -2
-21 -20 -42 -16 -36 7 3 11 1 20 -4 20 -28 0 4 88 35 95 12 2 30 6 41 8 11 3
22 5 25 6 3 0 12 -3 20 -9z m687 -6 c-8 -8 -117 -31 -192 -39 -68 -8 -66 4 5
25 43 12 181 29 189 23 2 -2 2 -6 -2 -9z m6854 -1 c13 -16 12 -17 -3 -4 -10 7
-18 15 -18 17 0 8 8 3 21 -13z m-8196 -3 c-3 -5 -21 -9 -38 -9 l-32 1 30 8
c43 11 47 11 40 0z m7525 7 c0 -2 -12 -14 -27 -28 l-28 -24 24 28 c23 25 31
32 31 24z m-5945 -37 c26 0 41 -15 25 -25 -15 -9 -70 24 -70 43 1 16 1 16 11
0 5 -10 21 -18 34 -18z m-1748 -19 c65 -11 161 -22 213 -25 97 -7 114 -10 235
-46 l70 -20 -80 6 c-44 3 -156 8 -250 9 -93 2 -190 8 -215 14 -25 6 -59 11
-76 11 -28 0 -30 3 -33 41 -1 25 2 38 8 35 6 -4 63 -15 128 -25z m1124 -4
c-10 -9 -11 -8 -5 6 3 10 9 15 12 12 3 -3 0 -11 -7 -18z m554 13 c-3 -5 -14
-10 -24 -10 -9 0 -21 -4 -26 -9 -6 -5 -28 -12 -50 -15 -226 -33 -510 -60 -532
-51 -31 13 59 34 227 51 85 9 189 22 230 29 95 16 183 18 175 5z m-1009 -56
c-6 -50 -4 -58 14 -71 11 -8 20 -19 20 -24 0 -6 -7 -3 -16 5 -8 9 -18 16 -22
16 -4 0 -23 -24 -42 -53 -19 -28 -157 -176 -307 -328 -150 -152 -273 -280
-273 -286 0 -10 12 -28 92 -133 56 -75 160 -166 245 -216 35 -20 63 -41 63
-46 0 -15 -85 38 -176 108 -77 60 -155 146 -223 247 -33 48 -102 189 -116 237
-7 22 -6 23 9 11 9 -7 16 -22 16 -33 0 -10 14 -46 31 -80 l31 -62 16 27 c9 15
21 27 27 27 5 0 18 13 29 28 19 29 63 55 77 46 5 -3 9 0 9 6 0 19 42 69 55 64
7 -3 15 7 18 25 4 21 51 74 160 183 159 159 237 247 237 268 0 18 22 90 28 90
3 0 2 -25 -2 -56z m7584 21 c0 -5 -5 -3 -10 5 -5 8 -10 20 -10 25 0 6 5 3 10
-5 5 -8 10 -19 10 -25z m-7841 16 c10 -6 -1 -8 -30 -4 -24 3 -46 7 -48 9 -10
9 65 3 78 -5z m794 2 c-7 -2 -21 -2 -30 0 -10 3 -4 5 12 5 17 0 24 -2 18 -5z
m6673 -53 c-9 -35 -14 -45 -15 -29 -1 25 18 93 25 87 1 -2 -3 -28 -10 -58z
m-4893 43 c-7 -2 -19 -2 -25 0 -7 3 -2 5 12 5 14 0 19 -2 13 -5z m5407 -10 c0
-10 -5 -25 -10 -33 -7 -11 -10 -7 -10 18 0 17 5 32 10 32 6 0 10 -8 10 -17z
m-5507 0 c-7 -2 -19 -2 -25 0 -7 3 -2 5 12 5 14 0 19 -2 13 -5z m4705 -25
c-20 -30 -44 -34 -57 -11 -8 15 -6 19 10 20 10 1 19 -3 19 -10 0 -6 7 -4 17 6
24 24 28 21 11 -5z m-6627 -6 c-7 -2 -18 1 -23 6 -8 8 -4 9 13 5 13 -4 18 -8
10 -11z m-331 -12 c0 -5 -12 -10 -27 -10 -22 0 -25 2 -13 10 20 13 40 13 40 0z
m213 -25 c-3 -8 -9 -15 -14 -15 -10 0 -12 24 -3 33 11 11 24 -3 17 -18z m923
-77 c-18 -201 -68 -381 -147 -527 -87 -158 -235 -351 -271 -351 -7 0 -18 8
-25 19 -10 16 -5 23 35 57 l47 38 -32 -37 c-33 -38 -41 -57 -24 -57 15 0 119
120 168 192 70 107 139 245 171 348 28 90 72 316 72 374 0 14 3 26 6 26 4 0 3
-37 0 -82z m-1036 -3 c14 -19 14 -19 -2 -6 -10 7 -18 18 -18 24 0 6 1 8 3 6 1
-2 9 -13 17 -24z m-1850 0 c16 -19 0 -41 -84 -116 -109 -97 -197 -150 -278
-169 -42 -9 -383 -34 -913 -65 -330 -20 -1057 -45 -1240 -43 l-140 1 175 8
c257 11 309 15 317 22 3 4 30 7 60 7 29 0 104 11 166 24 61 13 159 27 217 30
58 4 179 16 270 26 91 11 300 28 465 39 710 48 724 51 875 190 67 62 89 71
110 46z m7737 8 c-4 -3 -1 -13 6 -22 7 -9 28 -56 46 -106 19 -49 51 -124 72
-165 28 -54 35 -76 26 -82 -8 -5 -5 -8 8 -9 13 -1 9 -4 -10 -8 -16 -4 -446 -3
-955 1 -878 8 -1633 5 -2220 -8 -234 -6 -268 -5 -282 9 -12 12 -18 13 -28 4
-8 -7 -3 2 11 20 26 35 40 39 144 48 179 14 902 87 1090 110 116 14 494 56
840 95 347 38 657 74 690 80 33 5 112 10 175 11 63 0 160 7 215 14 117 15 181
18 172 8z m-5792 -69 c3 -20 24 -65 46 -99 21 -34 39 -69 39 -77 0 -9 8 -26
19 -39 24 -31 56 -97 65 -131 3 -16 11 -28 16 -28 10 0 89 -159 105 -209 4
-14 16 -38 26 -55 24 -39 24 -56 1 -56 -13 0 -29 25 -57 88 -92 206 -106 235
-111 230 -2 -3 4 -32 15 -64 11 -33 23 -75 26 -94 4 -19 20 -64 35 -100 41
-94 47 -123 26 -118 -19 3 -53 90 -87 222 -11 44 -29 96 -39 117 -13 25 -16
39 -8 41 13 5 -51 125 -79 151 -20 17 -73 12 -73 -7 0 -6 -4 -5 -9 3 -5 8 -7
38 -4 67 3 30 1 59 -4 66 -12 16 -17 81 -8 108 4 12 15 20 30 20 18 0 24 -7
30 -36z m-2295 -24 c0 -5 -15 -10 -32 -10 -25 0 -29 3 -18 10 20 13 50 13 50
0z m1610 -10 c0 -5 -7 -7 -15 -4 -8 4 -15 8 -15 10 0 2 7 4 15 4 8 0 15 -4 15
-10z m-1743 -6 c-3 -3 -12 -4 -19 -1 -8 3 -5 6 6 6 11 1 17 -2 13 -5z m2859
-21 c-7 -7 -26 7 -26 19 0 6 6 6 15 -2 9 -7 13 -15 11 -17z m6554 17 c0 -5 -7
-43 -17 -85 -10 -48 -21 -75 -30 -75 -7 0 -13 8 -13 17 0 26 43 153 52 153 4
0 8 -4 8 -10z m-9733 -16 c-3 -3 -12 -4 -19 -1 -8 3 -5 6 6 6 11 1 17 -2 13
-5z m56 -1 c-7 -2 -21 -2 -30 0 -10 3 -4 5 12 5 17 0 24 -2 18 -5z m9581 -121
c27 -29 47 -55 44 -58 -7 -6 -96 95 -121 139 l-19 32 23 -30 c13 -16 46 -54
73 -83z m-9694 58 c-25 -5 -117 -13 -205 -19 -88 -7 -179 -13 -202 -15 -23 -1
-47 1 -54 5 -16 10 300 36 446 36 l60 0 -45 -7z m-4867 -7 c-7 -2 -21 -2 -30
0 -10 3 -4 5 12 5 17 0 24 -2 18 -5z m8251 -41 c24 -23 47 -42 52 -42 5 0 25
-18 46 -40 29 -32 46 -42 79 -46 24 -3 46 -7 50 -10 4 -2 0 -22 -9 -43 l-17
-39 -50 46 c-217 203 -233 219 -214 217 11 -1 40 -20 63 -43z m-8141 31 c-13
-2 -35 -2 -50 0 -16 2 -5 4 22 4 28 0 40 -2 28 -4z m7452 -33 c-9 -41 -17 -33
-9 9 4 17 9 30 11 27 3 -2 2 -19 -2 -36z m7515 37 c0 -2 -12 -14 -27 -28 l-28
-24 24 28 c23 25 31 32 31 24z m-14892 -14 c-10 -2 -26 -2 -35 0 -10 3 -2 5
17 5 19 0 27 -2 18 -5z m4167 -13 c-16 -4 -43 -8 -60 -8 -29 0 -29 0 -5 8 14
4 41 8 60 8 l35 0 -30 -8z m-447 -37 c-32 -2 -84 -2 -115 0 -32 2 -6 3 57 3
63 0 89 -1 58 -3z m3636 -47 c-3 -15 -8 -25 -11 -23 -2 3 -1 17 3 31 3 15 8
25 11 23 2 -3 1 -17 -3 -31z m80 -39 c-6 -28 -8 -30 -15 -12 -11 29 -10 55 2
30 7 -15 8 -12 4 15 -4 28 -2 31 6 17 6 -10 7 -32 3 -50z m-222 26 c0 -10 1
-26 0 -35 -1 -10 3 -18 8 -18 6 0 10 -5 10 -11 0 -6 -7 -9 -15 -5 -8 3 -15 0
-16 -7 0 -7 -2 -35 -3 -63 -2 -40 -14 -71 -52 -139 -57 -102 -68 -109 -179
-100 -104 9 -115 12 -115 36 0 19 4 21 33 16 17 -3 39 -8 47 -11 12 -5 19 4
29 31 19 56 85 148 163 229 37 40 68 77 68 83 0 18 20 12 22 -6z m-618 -44
c-8 -13 -24 -1 -24 18 0 13 3 13 15 3 8 -7 12 -16 9 -21z m7973 9 c-3 -8 -6
-5 -6 6 -1 11 2 17 5 13 3 -3 4 -12 1 -19z m-7253 -102 c-15 -59 -29 -104 -32
-101 -3 2 7 52 23 110 15 58 30 104 32 102 2 -3 -8 -52 -23 -111z m98 61 c17
10 2 -124 -29 -253 -18 -78 -31 -114 -44 -123 -18 -10 -19 -7 -19 42 0 29 5
80 10 113 13 71 63 239 68 224 2 -5 9 -7 14 -3z m-4202 -192 c129 -8 264 -17
300 -20 56 -5 604 -31 1060 -50 183 -8 179 -7 223 -70 30 -43 44 -55 70 -58
18 -3 14 -3 -10 -2 -23 1 -43 -1 -45 -6 -2 -5 -118 -16 -258 -24 -140 -8 -424
-25 -630 -39 -1071 -73 -1517 -97 -1446 -79 11 3 15 8 8 12 -6 3 28 33 76 66
47 33 138 110 201 172 l116 112 50 1 c28 0 156 -7 285 -15z m3620 -13 c0 -5
-12 -19 -27 -33 l-26 -24 19 33 c17 30 34 42 34 24z m1210 -36 c0 -3 -4 -8
-10 -11 -5 -3 -10 -1 -10 4 0 6 5 11 10 11 6 0 10 -2 10 -4z m-86 -93 c-34
-40 -50 -52 -52 -41 -4 23 48 100 64 94 7 -3 16 -1 20 5 3 6 8 8 11 5 3 -3
-16 -31 -43 -63z m-737 -45 c-3 -8 -6 -5 -6 6 -1 11 2 17 5 13 3 -3 4 -12 1
-19z m130 -20 c-3 -8 -6 -5 -6 6 -1 11 2 17 5 13 3 -3 4 -12 1 -19z m-162
-118 c-16 -47 -31 -68 -41 -57 -3 2 3 20 12 38 31 61 34 69 35 86 1 17 2 17 6
0 2 -9 -3 -40 -12 -67z m715 -20 c0 -22 -18 -36 -31 -23 -5 5 -11 33 -14 63
l-6 54 26 -38 c14 -20 25 -45 25 -56z m-76 37 c29 -42 32 -65 14 -89 -13 -16
-29 -22 -55 -19 -20 2 -16 68 3 75 12 5 15 16 12 41 -2 19 -3 33 -2 32 2 -1
14 -19 28 -40z m-502 -148 c-7 -7 -37 -12 -59 -10 -22 2 -14 39 12 59 14 11
25 26 26 33 0 8 7 -6 14 -31 8 -25 11 -48 7 -51z m396 -1 c-9 -28 -161 -52
-305 -49 -98 2 -54 17 55 19 71 1 129 8 172 21 81 24 83 24 78 9z"/>
<path d="M16998 11743 c7 -3 16 -2 19 1 4 3 -2 6 -13 5 -11 0 -14 -3 -6 -6z"/>
<path d="M15990 9803 c8 -3 18 -11 22 -17 9 -14 22 -1 13 13 -3 6 -16 11 -28
10 -15 0 -17 -2 -7 -6z"/>
<path d="M12840 9672 c0 -24 19 -42 37 -35 8 3 13 0 11 -7 -2 -6 7 -16 20 -21
17 -6 22 -5 22 6 0 8 -6 15 -14 15 -8 0 -17 7 -20 16 -9 23 -8 24 14 24 11 0
20 5 20 10 0 6 -20 10 -45 10 -37 0 -45 -3 -45 -18z"/>
<path d="M13040 9665 c0 -8 5 -15 10 -15 6 0 10 7 10 15 0 8 -4 15 -10 15 -5
0 -10 -7 -10 -15z"/>
<path d="M9852 9135 c-11 -23 -10 -25 16 -25 30 0 52 16 52 37 0 8 -12 13 -28
13 -21 0 -32 -7 -40 -25z"/>
<path d="M10179 9083 c-13 -16 -12 -17 4 -4 9 7 17 15 17 17 0 8 -8 3 -21 -13z"/>
<path d="M7555 8630 c3 -5 11 -10 16 -10 6 0 7 5 4 10 -3 6 -11 10 -16 10 -6
0 -7 -4 -4 -10z"/>
<path d="M5173 8813 c-15 -6 -17 -43 -3 -43 12 0 24 25 18 38 -1 5 -9 7 -15 5z"/>
<path d="M12240 7739 c-22 -19 -29 -29 -18 -29 21 0 62 34 57 47 -2 6 -19 -2
-39 -18z"/>
<path d="M8670 7900 c-20 -6 -15 -8 25 -9 36 0 46 2 35 9 -17 11 -25 11 -60 0z"/>
<path d="M14290 7271 c0 -5 9 -7 20 -4 11 3 20 7 20 9 0 2 -9 4 -20 4 -11 0
-20 -4 -20 -9z"/>
<path d="M14073 7223 c9 -2 23 -2 30 0 6 3 -1 5 -18 5 -16 0 -22 -2 -12 -5z"/>
<path d="M16664 12092 c3 -6 19 -12 36 -14 37 -6 27 7 -13 16 -17 4 -26 3 -23
-2z"/>
<path d="M16840 12051 c0 -8 222 -72 229 -66 2 3 2 7 -1 10 -9 9 -228 63 -228
56z"/>
<path d="M17885 11570 c3 -5 8 -10 11 -10 2 0 4 5 4 10 0 6 -5 10 -11 10 -5 0
-7 -4 -4 -10z"/>
<path d="M18081 11479 c41 -41 182 -175 313 -299 131 -124 296 -284 367 -357
123 -126 154 -153 178 -153 52 0 -104 199 -337 430 -70 69 -143 146 -161 171
-59 77 -327 261 -403 276 -28 6 -25 0 43 -68z m110 -40 c16 -12 19 -18 9 -18
-8 0 -33 16 -55 36 -35 31 -36 34 -9 18 17 -9 41 -26 55 -36z"/>
<path d="M17940 11459 c0 -5 5 -7 10 -4 6 3 10 8 10 11 0 2 -4 4 -10 4 -5 0
-10 -5 -10 -11z"/>
<path d="M17996 11442 c-3 -4 4 -9 15 -9 23 -2 25 3 4 10 -8 4 -16 3 -19 -1z"/>
</g>
</svg>
